{
  "title": "800 Words - S02E05",
  "uid": 15867711,
  "size": 362365187,
  "categoryP": "video",
  "categoryS": "tv_shows",
  "magnet": "?xt=urn:btih:1de3ef3c19d807ba5d67c20ca220326f20cee6ad&amp;dn=800+Words+-+S02E05&amp;tr=udp%3A%2F%2Ftracker.leechers-paradise.org%3A6969&amp;tr=udp%3A%2F%2Fzer0day.ch%3A1337&amp;tr=udp%3A%2F%2Fopen.demonii.com%3A1337&amp;tr=udp%3A%2F%2Ftracker.coppersurfer.tk%3A6969&amp;tr=udp%3A%2F%2Fexodus.desync.com%3A6969",
  "seeders": 36,
  "leechers": 11,
  "uploader": "Bullrout",
  "files": 1,
  "time": 1474390470,
  "description": "800 Words - S02E05\r\n\r\nGeorge's first date with Katie is the only news in Weld, while Constable Tom and Big Mac clash over the invasion of the freedom campers.\r\n\r\nComplete name                            : 800 Words - S02E05.mp4\r\nFormat                                   : MPEG-4\r\nFormat profile                           : Base Media / Version 2\r\nCodec ID                                 : mp42 (mp42/isom/avc1)\r\nFile size                                : 346 MiB\r\nDuration                                 : 43 min 8 s\r\nOverall bit rate mode                    : Variable\r\nOverall bit rate                         : 1 120 kb/s\r\n\r\nVideo\r\nID                                       : 2\r\nFormat                                   : AVC\r\nFormat/Info                              : Advanced Video Codec\r\nFormat profile                           :   \r\nFormat settings, CABAC                   : Yes\r\nFormat settings, ReFrames                : 3 frames\r\nCodec ID                                 : avc1\r\nCodec ID/Info                            : Advanced Video Coding\r\nDuration                                 : 43 min 8 s\r\nBit rate mode                            : Variable\r\nBit rate                                 : 988 kb/s\r\nMaximum bit rate                         : 1 000 kb/s\r\nWidth                                    : 720 pixels\r\nHeight                                   : 404 pixels\r\nDisplay aspect ratio                     : 16:9\r\nOriginal display aspect ratio            : 16:9\r\nFrame rate mode                          : Constant\r\nFrame rate                               : 25.000 FPS\r\nStandard                                 : PAL\r\nColor space                              : YUV\r\nChroma subsampling                       : 4:2:0\r\nBit depth                                : 8 bits\r\nScan type                                : Progressive\r\nBits/(Pixel*Frame)                       : 0.136\r\nStream size                              : 305 MiB (88%)\r\nWriting library                          : x264 core 112\r\nColor range                              : Limited\r\nColor primaries                          : BT.601 PAL\r\nTransfer characteristics                 : BT.470 System B, BT.470 System G\r\nMatrix coefficients                      : BT.601\r\n\r\nAudio\r\nID                                       : 1\r\nFormat                                   : AAC\r\nFormat/Info                              : Advanced Audio Codec\r\nFormat profile                           : LC\r\nCodec ID                                 : 40\r\nDuration                                 : 43 min 8 s\r\nBit rate mode                            : Variable\r\nBit rate                                 : 128 kb/s\r\nMaximum bit rate                         : 576 kb/s\r\nChannel(s)                               : 2 channels\r\nChannel positions                        : Front: L R\r\nSampling rate                            : 48.0 kHz\r\nFrame rate                               : 46.875 FPS (1024 spf)\r\nCompression mode                         : Lossy\r\nStream size                              : 39.5 MiB (11%)",
  "parsed": {
    "xt": "urn:btih:1de3ef3c19d807ba5d67c20ca220326f20cee6ad",
    "dn": "800 Words - S02E05",
    "tr": [
      "udp://exodus.desync.com:6969",
      "udp://open.demonii.com:1337",
      "udp://tracker.coppersurfer.tk:6969",
      "udp://tracker.leechers-paradise.org:6969",
      "udp://zer0day.ch:1337"
    ],
    "infoHash": "1de3ef3c19d807ba5d67c20ca220326f20cee6ad",
    "infoHashBuffer": {
      "type": "Buffer",
      "data": [
        29,
        227,
        239,
        60,
        25,
        216,
        7,
        186,
        93,
        103,
        194,
        12,
        162,
        32,
        50,
        111,
        32,
        206,
        230,
        173
      ]
    },
    "name": "800 Words - S02E05",
    "announce": [
      "udp://exodus.desync.com:6969",
      "udp://open.demonii.com:1337",
      "udp://tracker.coppersurfer.tk:6969",
      "udp://tracker.leechers-paradise.org:6969",
      "udp://zer0day.ch:1337"
    ],
    "urlList": []
  },
  "previous": 31,
  "peers": 31,
  "last_updated": "2016-12-26T18:13:45.437Z"
}